<svg aria-hidden="true" style="position: absolute; width: 0; height: 0; overflow: hidden;" version="1.1" xmlns="http://www.w3.org/2000/svg" xmlns:xlink="http://www.w3.org/1999/xlink">
  <symbol xmlns="http://www.w3.org/2000/svg" viewBox="0 0 35.049 33.43" id="arrow-right">
    <path d="M.912 16.635h32.391M18.415 1.29l15.343 15.343M18.277 32.139L33.62 16.796" fill="none"  stroke-linecap="round" stroke-width="1.825"></path>
  </symbol>
  <symbol xmlns="http://www.w3.org/2000/svg" viewBox="0 0 35.049 33.43" id="arrow-left">
    <path d="M34.137 16.794H1.746m14.888 15.345L1.291 16.796M16.772 1.29L1.429 16.633" fill="none" stroke-linecap="round" stroke-width="1.825"></path>
  </symbol>
  <symbol xmlns="http://www.w3.org/2000/svg" viewBox="0 0 16.915 16.914" id="whatsup">
    <path d="M12.275 10.137c-.208-.105-1.239-.611-1.432-.679s-.332-.106-.471.105-.539.68-.664.823-.245.159-.453.053a5.7 5.7 0 0 1-2.851-2.491c-.216-.37.215-.344.616-1.144A.386.386 0 0 0 7 6.437c-.052-.1-.471-1.136-.646-1.555s-.343-.351-.471-.359-.26-.007-.4-.007a.771.771 0 0 0-.558.26 2.352 2.352 0 0 0-.733 1.748 4.089 4.089 0 0 0 .853 2.167 9.357 9.357 0 0 0 3.579 3.164 4.1 4.1 0 0 0 2.515.525 2.15 2.15 0 0 0 1.412-1 1.768 1.768 0 0 0 .121-1c-.049-.094-.189-.147-.4-.249m-3.814 5.225a6.954 6.954 0 0 1-3.549-.97l-.253-.151-2.637.69.7-2.571-.165-.264a6.967 6.967 0 0 1 10.828-8.631 6.917 6.917 0 0 1-4.924 11.897m5.927-12.9A8.384 8.384 0 0 0 1.194 12.57L.003 16.912l4.445-1.166a8.354 8.354 0 0 0 4.006 1.019 8.328 8.328 0 0 0 5.927-14.309" ></path>
  </symbol>
  <symbol xmlns="http://www.w3.org/2000/svg" viewBox="0 0 16.224 11.408" id="youtube">
    <path d="M6.453 8.128V3.303l4.24 2.412zm9.432-6.343A2.039 2.039 0 0 0 14.451.341a59.089 59.089 0 0 0-12.678 0A2.039 2.039 0 0 0 .339 1.785a22.956 22.956 0 0 0 0 7.861 2.007 2.007 0 0 0 1.434 1.42 58.921 58.921 0 0 0 12.678 0 2.007 2.007 0 0 0 1.434-1.42 22.948 22.948 0 0 0 0-7.861" fill="#024b76"></path>
  </symbol>
  <symbol xmlns="http://www.w3.org/2000/svg" viewBox="0 0 8.05 15.03" id="facebook">
    <path d="M7.522 8.454l.417-2.72h-2.61V3.969a1.361 1.361 0 0 1 1.534-1.47H8.05V.18a14.538 14.538 0 0 0-2.107-.183 3.32 3.32 0 0 0-3.554 3.661v2.073H0v2.72h2.389v6.576h2.94V8.451z" fill="#024b76"></path>
  </symbol>
  <symbol xmlns="http://www.w3.org/2000/svg" viewBox="0 0 14.183 14.18" id="inst">
    <path d="M12.621 11.269a2.4 2.4 0 0 1-1.348 1.348 30.8 30.8 0 0 1-8.36 0 2.393 2.393 0 0 1-1.348-1.348 30.9 30.9 0 0 1 0-8.359 2.4 2.4 0 0 1 1.348-1.348 30.8 30.8 0 0 1 8.36 0 2.392 2.392 0 0 1 1.348 1.348 30.9 30.9 0 0 1 0 8.359m1.512-7.1A3.927 3.927 0 0 0 10.017.052c-1.171-.066-4.68-.066-5.851 0A3.923 3.923 0 0 0 .05 4.166c-.067 1.17-.067 4.679 0 5.85a3.927 3.927 0 0 0 4.116 4.117c1.171.066 4.68.066 5.851 0a3.927 3.927 0 0 0 4.116-4.117c.066-1.171.066-4.676 0-5.847m-2.412-.864a.848.848 0 1 0-.848.848.848.848 0 0 0 .848-.848M7.089 9.453A2.363 2.363 0 1 1 9.453 7.09a2.368 2.368 0 0 1-2.364 2.363m0-6a3.635 3.635 0 1 0 3.635 3.636 3.629 3.629 0 0 0-3.635-3.636" fill="#024b76"></path>
  </symbol>
  <symbol xmlns="http://www.w3.org/2000/svg" viewBox="0 0 17.126 18.06" id="viber">
    <path d="M12.758 11.603a.632.632 0 0 0-.134-.833 9.223 9.223 0 0 0-1.615-1.16.739.739 0 0 0-.939.13l-.338.424a.62.62 0 0 1-.494.186 4.415 4.415 0 0 1-2.973-2.973.622.622 0 0 1 .187-.494l.423-.338a.737.737 0 0 0 .131-.938c-.125-.215-.36-.6-.537-.84-.187-.257-.625-.779-.625-.779a.643.643 0 0 0-.843-.138h-.006c-.673.381-1.411 1.094-1.174 1.827a10.546 10.546 0 0 0 .917 1.965 11.447 11.447 0 0 0 1.085 1.642 9.173 9.173 0 0 0 1.5 1.5 13.606 13.606 0 0 0 3.6 1.992l.008.011c.734.236 1.445-.5 1.827-1.174zm.4-3.46a4.615 4.615 0 0 0-4.716-4.91.228.228 0 0 0 0 .455 4.157 4.157 0 0 1 4.26 4.458.228.228 0 0 0 .456 0M11.5 7.673a.227.227 0 0 0 .454.011 3.089 3.089 0 0 0-3.1-3.263.228.228 0 0 0-.033.455 2.636 2.636 0 0 1 2.675 2.8m-.717-.4A1.531 1.531 0 0 0 9.2 5.647a.228.228 0 0 0-.026.455 1.091 1.091 0 0 1 1.151 1.2.227.227 0 1 0 .454-.022m4.9 2.85c-.456 3.668-3.139 3.9-3.633 4.06a15.181 15.181 0 0 1-4.627.395s-1.834 2.211-2.405 2.786c-.187.187-.392.169-.389-.2 0-.243.015-3.023.015-3.023-3.59-.994-3.38-4.736-3.34-6.694s.408-3.562 1.5-4.641c1.964-1.782 6.01-1.517 6.01-1.517 3.417.015 5.053 1.044 5.435 1.39 1.258 1.079 1.9 3.661 1.432 7.445m-.49-8.363c-.449-.412-2.262-1.727-6.3-1.745 0 0-4.765-.285-7.086 1.845C.51 3.159.055 5.053.001 7.398s-.109 6.74 4.127 7.932v1.82s-.028.737.459.885c.585.183.93-.377 1.492-.981.306-.331.729-.818 1.051-1.188a16.4 16.4 0 0 0 5.378-.395 5.3 5.3 0 0 0 4.433-5.009c.558-4.535-.268-7.4-1.756-8.694" ></path>
  </symbol>
    <symbol xmlns="http://www.w3.org/2000/svg" viewBox="0 0 28.8 28" id="geo">
    <path d="M6.1 16h2.5a76.592 76.592 0 0 0 5 7.6l.8 1.1.8-1.1a76.592 76.592 0 0 0 5-7.6h2.5L26 26H2.8zm8.3-14A6.594 6.594 0 0 1 21 8.6c0 2.8-4.2 9.3-6.6 12.7C12 18 7.8 11.4 7.8 8.6A6.594 6.594 0 0 1 14.4 2m9.7 12h-2.8A14.815 14.815 0 0 0 23 8.6a8.6 8.6 0 1 0-17.2 0A14.815 14.815 0 0 0 7.5 14H4.7L0 28h28.8zM12 8.6a2.4 2.4 0 1 1 2.4 2.4A2.433 2.433 0 0 1 12 8.6m6.8 0a4.4 4.4 0 1 0-4.4 4.4 4.439 4.439 0 0 0 4.4-4.4" fill="#024b76"></path>
  <symbol id="icon-price" viewBox="0 0 32 32">
    <path d="M30.066 1.93c-1.189-1.194-2.834-1.932-4.652-1.932-2.563 0-4.782 1.468-5.864 3.609l-0.017 0.038c-0.039 0.097-0.062 0.21-0.062 0.328 0 0.5 0.405 0.905 0.905 0.905 0.323 0 0.606-0.169 0.767-0.424l0.002-0.004c0.797-1.585 2.411-2.654 4.274-2.654 2.634 0 4.769 2.135 4.769 4.769 0 2.592-2.067 4.7-4.643 4.768l-0.006 0-0.259-3.785c-0.033-0.45-0.39-0.807-0.837-0.84l-0.003-0-10.377-0.718c-0.021-0.002-0.046-0.003-0.072-0.003-0.247 0-0.47 0.103-0.629 0.268l-13.101 13.104c-0.162 0.164-0.263 0.39-0.263 0.64s0.1 0.475 0.263 0.64l11.095 11.096c0.162 0.164 0.387 0.265 0.636 0.265 0.002 0 0.003 0 0.005 0h-0c0.249-0.002 0.475-0.103 0.639-0.265l-0 0 13.1-13.102c0.165-0.163 0.267-0.389 0.267-0.638 0-0.022-0.001-0.044-0.002-0.065l0 0.003-0.346-4.788c3.528-0.125 6.341-3.015 6.341-6.562 0-1.815-0.737-3.459-1.928-4.647l-0-0zM12.001 29.815l-9.816-9.816 12.177-12.17 9.176 0.634 0.175 2.565c-0.654-0.245-1.214-0.606-1.679-1.063l0.001 0.001c-0.144-0.1-0.323-0.161-0.516-0.161-0.503 0-0.911 0.408-0.911 0.911 0 0.193 0.060 0.372 0.162 0.519l-0.002-0.003c0.821 0.833 1.864 1.445 3.033 1.741l0.045 0.010 0.326 4.685z"></path>
    <path d="M14.903 24.58l0.948-0.949-1.246-1.246 2.258-2.258-0.831-0.829-2.257 2.258-0.893-0.893 1.545-1.545c0.652-0.587 1.060-1.434 1.060-2.376 0-1.764-1.43-3.194-3.194-3.194-0.942 0-1.789 0.408-2.374 1.057l-0.003 0.003-2.494 2.493 3.686 3.686-0.89 0.89 0.829 0.831 0.89-0.892 0.893 0.893-0.89 0.89 0.829 0.829 0.89-0.89zM12.053 19.832l-2.852-2.851 1.545-1.545c0.363-0.352 0.858-0.569 1.404-0.569 1.114 0 2.017 0.903 2.017 2.017 0 0.546-0.217 1.042-0.57 1.405l0-0z"></path>
  </symbol>
  <symbol id="icon-features" viewBox="0 0 32 32">
    <path d="M26.92 5.071l-0.896-0.298c-0.754-2.77-3.247-4.773-6.208-4.773-0.011 0-0.022 0-0.033 0h-2.987c-0.003 0-0.007 0-0.011 0-2.602 0-5.023 0.772-7.048 2.1l0.049-0.030h-8.507v7.241h3.112c-0.332 1.084-0.524 2.33-0.526 3.62v7.242c0.004 1.889 1.45 3.438 3.296 3.605l0.014 0.001c0.991 4.763 5.153 8.29 10.139 8.29s9.148-3.528 10.127-8.223l0.012-0.067c1.859-0.168 3.306-1.717 3.309-3.605v-9.771c0-0.002 0-0.005 0-0.008 0-2.465-1.59-4.559-3.8-5.312l-0.040-0.012zM2.314 3.107h7.241v5.172h-7.241zM4.9 20.175c0.003-1.245 0.882-2.283 2.053-2.531l0.017-0.003v4.086c0 0.334 0.019 0.663 0.050 0.988-1.212-0.229-2.117-1.278-2.12-2.539v-0zM26.624 21.727c0 5.142-4.168 9.31-9.31 9.31s-9.31-4.168-9.31-9.31v-5.171h1.034v1.551c0.002 1.428 1.159 2.584 2.587 2.586h2.586c1.428-0.001 2.585-1.158 2.587-2.585v-1.552h1.034v1.551c0.001 1.427 1.158 2.584 2.585 2.586h2.587c1.427-0.001 2.584-1.158 2.586-2.585v-1.552h1.034zM10.074 18.107v-2.072c0-0.283 0.229-0.512 0.512-0.512v0h4.655c0.283 0 0.512 0.229 0.512 0.512v0 2.070c-0.001 0.857-0.695 1.551-1.551 1.551h-2.586c-0.857-0.001-1.551-0.695-1.551-1.551v-0zM18.857 18.104v-2.070c0-0.283 0.229-0.512 0.512-0.512v0h4.655c0.283 0 0.512 0.229 0.512 0.512v0 2.070c-0.001 0.856-0.695 1.55-1.551 1.551h-2.587c-0.856-0.001-1.55-0.695-1.551-1.551v-0zM26.605 15.517h-1.129c-0.218-0.606-0.788-1.032-1.456-1.034h-4.656c-0.669 0.003-1.238 0.428-1.453 1.023l-0.003 0.011h-1.225c-0.218-0.606-0.787-1.032-1.456-1.034h-4.638c-0.669 0.003-1.238 0.428-1.453 1.023l-0.003 0.011h-1.129v-0.512c0.003-1.999 1.622-3.618 3.621-3.621h2.069v2.070h1.034v-2.070h4.224c0 0 0 0 0 0 2.054 0 3.981-0.542 5.646-1.491l-0.056 0.030c1.261 0.883 2.076 2.326 2.081 3.961v0.001zM27.589 22.712c0.032-0.325 0.051-0.654 0.051-0.988v-4.086c1.188 0.249 2.067 1.288 2.067 2.532 0 1.262-0.905 2.314-2.102 2.539l-0.016 0.003zM29.709 17.644c-0.539-0.551-1.251-0.93-2.049-1.047l-0.020-0.002v-2.715c-0.006-2.116-1.13-3.967-2.812-4.997l-0.026-0.015-0.266-0.16-0.266 0.16c-1.523 0.928-3.365 1.477-5.336 1.477-0 0-0 0-0.001 0h-4.224v-5.172h-3.085v1.036h2.068v4.137h-2.068c-2.57 0.004-4.652 2.086-4.655 4.655v1.594c-0.817 0.121-1.53 0.499-2.069 1.049l-0.001 0.001v-4.712c0.002-1.295 0.212-2.54 0.596-3.705l-0.024 0.084h5.12v-6.52c1.764-1.102 3.907-1.755 6.202-1.755 0.002 0 0.004 0 0.006 0h2.988c0.008-0 0.017-0 0.026-0 2.574 0 4.727 1.802 5.266 4.214l0.007 0.036 0.063 0.287 1.445 0.481c1.837 0.624 3.135 2.333 3.135 4.345 0 0.002 0 0.005 0 0.007v-0z"></path>
    <path d="M17.313 26.897c-2.855-0.004-5.169-2.317-5.172-5.172v-0h-1.034c0 3.429 2.779 6.208 6.208 6.208s6.208-2.779 6.208-6.208h-1.034c-0.004 2.855-2.317 5.169-5.172 5.172h-0z"></path>
  </symbol>
  <symbol id="icon-methodology" viewBox="0 0 32 32">
    <path d="M20.29 7.226c0-0 0-0.001 0-0.001 0-2.281-1.849-4.13-4.13-4.13s-4.13 1.849-4.13 4.13c0 2.281 1.849 4.13 4.13 4.13 0 0 0 0 0 0v0c2.279-0.003 4.126-1.849 4.13-4.128v-0zM16.161 10.322c-1.709-0.001-3.095-1.387-3.095-3.096s1.386-3.096 3.096-3.096 3.096 1.386 3.096 3.096v0c-0.002 1.71-1.388 3.095-3.097 3.096h-0z"></path>
    <path d="M16.161 24.258c-6.775 0-9.446 1.558-9.557 1.623l-0.249 0.151v0.292c0 3.144 5.364 5.677 9.806 5.677s9.806-2.533 9.806-5.677v-0.292l-0.249-0.151c-0.112-0.066-2.782-1.623-9.557-1.623zM16.161 25.296c0.231-0.008 0.502-0.012 0.775-0.012 2.569 0 5.048 0.384 7.383 1.097l-0.179-0.047c-2.394 0.649-5.143 1.022-7.979 1.022s-5.585-0.373-8.2-1.072l0.221 0.050c2.157-0.667 4.636-1.050 7.205-1.050 0.272 0 0.543 0.004 0.813 0.013l-0.039-0.001zM16.161 30.973c-4.216 0-7.546-1.998-8.495-3.719 2.547 0.723 5.473 1.139 8.495 1.139s5.948-0.416 8.722-1.193l-0.227 0.054c-0.948 1.721-4.284 3.719-8.495 3.719z"></path>
    <path d="M13.582 21.162h1.033v2.064h-1.033v-2.064z"></path>
    <path d="M13.58 19.096v1.032h1.032v-2.064h-2.004l3.556-4.346 3.557 4.346h-2.011v3.096h1.039v-2.064h3.153l-5.734-7.010-5.734 7.010z"></path>
    <path d="M17.711 22.194h1.033v1.032h-1.033v-1.032z"></path>
    <path d="M32.039 6.892c-3.977-4.246-9.619-6.892-15.878-6.892s-11.901 2.646-15.867 6.88l-0.011 0.012-0.283 0.334 0.283 0.334c3.225 3.432 7.531 5.815 12.373 6.604l0.126 0.017 0.293 0.047 0.949-1.168-0.584-0.287c-2.072-1.030-3.471-3.133-3.471-5.562 0-3.42 2.772-6.192 6.192-6.192s6.192 2.772 6.192 6.192c0 2.429-1.399 4.532-3.435 5.546l-0.036 0.016-0.584 0.287 0.949 1.161 0.293-0.047c4.967-0.806 9.274-3.189 12.488-6.609l0.011-0.011 0.283-0.334zM8.931 7.226c-0 0.008-0 0.018-0 0.028 0 2.308 1.091 4.361 2.785 5.672l0.017 0.012c-4.076-0.953-7.59-2.958-10.356-5.713l0.001 0.001c2.764-2.757 6.278-4.762 10.21-5.683l0.145-0.029c-1.71 1.332-2.8 3.391-2.8 5.705 0 0.002 0 0.005 0 0.007v-0zM20.581 12.938c1.71-1.333 2.799-3.394 2.799-5.708s-1.089-4.375-2.783-5.696l-0.016-0.012c4.074 0.955 7.586 2.96 10.352 5.713l-0.001-0.001c-2.764 2.758-6.279 4.764-10.212 5.683l-0.145 0.028z"></path>
  </symbol>
  <symbol id="icon-equipment" viewBox="0 0 32 32">
    <path d="M27.091 2.065h-3.446c-1.36-1.279-3.196-2.065-5.215-2.065-0.005 0-0.011 0-0.016 0h-8.513c-0.002 0-0.003 0-0.005 0-0.857 0-1.552 0.692-1.558 1.547v9.291c0.006 0.857 0.702 1.549 1.559 1.549 0.001 0 0.003 0 0.004 0h0.212l5.683 10.323h-2.248v-2.065h-5.206v2.065h-2.093v-2.677c0.609-0.214 1.039-0.783 1.043-1.452v-3.098c-0.006-0.856-0.701-1.548-1.558-1.548-0.002 0-0.004 0-0.005 0h-2.084c-0.002 0-0.004 0-0.006 0-0.857 0-1.552 0.692-1.557 1.547v3.098c0.004 0.67 0.433 1.238 1.030 1.449l0.011 0.003v2.677h-1.562c-0.002 0-0.004 0-0.006 0-0.857 0-1.552 0.692-1.557 1.547v5.678h3.239l0.522 2.065h3.936l0.522-2.065h9.605l0.521 2.065h3.936l0.522-2.065h3.239v-1.836c0.301 0.18 0.665 0.287 1.053 0.287 1.142 0 2.069-0.923 2.074-2.064v-0.304l1.752-1.736c0.848-0.833 1.374-1.993 1.374-3.275 0-0.003 0-0.006 0-0.010v0-13.773c-0.017-2.854-2.335-5.161-5.191-5.161-0.005 0-0.011 0-0.016 0h0.001zM9.893 11.355c-0 0-0.001 0-0.001 0-0.286 0-0.518-0.231-0.519-0.517v-9.29c0.001-0.285 0.233-0.516 0.518-0.516 0.001 0 0.002 0 0.003 0h5.731v1.548c-0.001 0.285-0.233 0.516-0.518 0.516-0.001 0-0.002 0-0.003 0h-2.084c-0.002 0-0.003 0-0.005 0-0.857 0-1.553 0.693-1.558 1.549v6.71zM15.27 19.609l-3.977-7.225h2.248v-1.032h-1.043v-6.71c0.002-0.286 0.234-0.517 0.521-0.517 0 0 0.001 0 0.001 0h2.084c0.002 0 0.004 0 0.006 0 0.857 0 1.552-0.692 1.557-1.547v-1.548h1.741c0.007-0 0.015-0 0.023-0 1.81 0 3.45 0.731 4.64 1.913l-0-0c1.192 1.173 1.931 2.804 1.931 4.607 0 0.004 0 0.009 0 0.013v-0.001 3.274c-0.001 0.286-0.233 0.517-0.519 0.517-0 0-0.001 0-0.001 0h-9.905v1.032h9.378v7.225zM23.959 20.641v2.065h-6.984l-1.136-2.065zM9.373 21.674h3.126v1.032h-3.126zM3.12 15.479c0.002-0.285 0.234-0.516 0.519-0.516 0.001 0 0.002 0 0.003 0h2.084c0.001 0 0.002 0 0.003 0 0.285 0 0.517 0.231 0.518 0.515v3.097c-0.001 0.285-0.233 0.516-0.518 0.516-0.001 0-0.002 0-0.003 0h-2.084c-0.001 0-0.002 0-0.003 0-0.285 0-0.517-0.23-0.519-0.515v-0zM5.205 22.706h-1.043v-2.58h1.043zM6.881 30.96h-2.312l-0.254-1.032h2.832zM21.469 30.96h-2.307l-0.26-1.032h2.838zM25.002 25.798h-21.877v1.032h21.882v2.065h-23.966v-2.065h1.043v-1.032h-1.043v-1.544c0.002-0.286 0.234-0.517 0.521-0.517 0 0 0.001 0 0.001 0h23.444zM25.523 22.702h-0.521v-10.413c0.609-0.215 1.037-0.784 1.041-1.454v-3.274c-0.001-0.485-0.047-0.959-0.134-1.419l0.008 0.047h0.65c0.002 0 0.003 0 0.005 0 0.857 0 1.552 0.693 1.557 1.549v12.136c0 0.002 0 0.003 0 0.005 0 0.712-0.291 1.356-0.762 1.819l-0 0-0.432 0.428c-0.36 0.358-0.857 0.579-1.405 0.579-0.002 0-0.004 0-0.006 0h0zM31.255 20.997c0 0.002 0 0.004 0 0.006 0 0.998-0.409 1.9-1.067 2.549l-0 0-2.058 2.038v0.73c-0.020 0.56-0.479 1.006-1.042 1.006s-1.022-0.446-1.042-1.004l-0-0.002v-2.625c0.64-0.111 1.197-0.409 1.627-0.835l-0 0 0.432-0.428c0.659-0.649 1.068-1.551 1.068-2.549 0-0.002 0-0.004 0-0.006v0-3.363h1.041v-1.032h-1.041v-1.032h1.041v-1.032h-1.041v-1.031h1.041v-1.032h-1.041v-1.032h1.041v-1.032h-1.041v-1.544c-0.008-1.427-1.167-2.582-2.596-2.582-0.003 0-0.006 0-0.009 0h-0.92c-0.272-0.789-0.64-1.473-1.098-2.084l0.014 0.019h2.526c0.004 0 0.009-0 0.014-0 2.286 0 4.14 1.846 4.154 4.128v0.001z"></path>
  </symbol>
    <symbol id="icon-specialists" viewBox="0 0 32 32">
    <path d="M23.114 20.721l-4.44-1.48v-0.66h-1.032v0.969l-0.771 3.081-2.085-2.497h-1.515l-2.085 2.497-0.771-3.081v-0.969h-1.032v0.66l-4.441 1.48c-1.981 0.672-3.449 2.355-3.8 4.42l-0.005 0.033-1.138 6.825h28.063l-1.138-6.825c-0.356-2.098-1.824-3.782-3.765-4.441l-0.040-0.012zM14.551 30.968v-8.258h-1.033v8.258h-7.688l0.46-4.593-1.027-0.102-0.476 4.697h-3.567l0.937-5.626c0.292-1.716 1.493-3.093 3.080-3.634l0.033-0.010 3.082-1.026v4.69c-0.897 0.237-1.548 1.042-1.548 1.999 0 1.14 0.924 2.064 2.064 2.064s2.064-0.924 2.064-2.064c0-0.957-0.651-1.761-1.534-1.995l-0.014-0.003v-5.035l0.151-0.050 1.144 4.575 3.075-3.686h0.549l3.076 3.686 1.144-4.575 0.151 0.050v4.126l-1.956 0.979c-0.681 0.343-1.14 1.036-1.14 1.837 0 0.003 0 0.006 0 0.009v-0 0.595c0.001 1.14 0.925 2.063 2.064 2.064h0.516v-1.032h-0.516c-0.57-0.001-1.031-0.462-1.032-1.032v-0.595c0-0.001 0-0.003 0-0.004 0-0.4 0.229-0.747 0.564-0.916l0.006-0.003 2.011-1.005 2.011 1.005c0.34 0.172 0.57 0.52 0.57 0.921 0 0.001 0 0.002 0 0.002v-0 0.595c-0.001 0.57-0.462 1.031-1.032 1.032h-0.516v1.032h0.516c0.515-0.002 0.984-0.194 1.342-0.51l-0.002 0.002 0.155 1.54zM8.872 26.323c0.57 0 1.032 0.462 1.032 1.032s-0.462 1.032-1.032 1.032c-0.57 0-1.032-0.462-1.032-1.032v0c0.001-0.57 0.462-1.031 1.032-1.032h0zM23.274 30.968l-0.476-4.697-0.25 0.025c-0.204-0.373-0.508-0.669-0.877-0.857l-0.012-0.005-1.956-0.979v-3.781l3.082 1.026c1.621 0.55 2.821 1.927 3.109 3.616l0.004 0.027 0.937 5.624z"></path>
    <path d="M7.547 13.907c0.282 0.952 0.777 1.767 1.434 2.422l2.013 2.012c0.464 0.467 1.108 0.756 1.818 0.756 0.002 0 0.005 0 0.007 0h2.418c0.002 0 0.004 0 0.006 0 0.711 0 1.355-0.289 1.82-0.756l2.012-2.012c0.657-0.655 1.153-1.47 1.425-2.382l0.010-0.040c1.294-0.143 2.291-1.229 2.291-2.549 0-0.845-0.409-1.595-1.040-2.062l-0.007-0.005h0.015v-1.546c0-4.276-3.466-7.742-7.742-7.742s-7.742 3.466-7.742 7.742v0 1.546h0.015c-0.638 0.472-1.047 1.222-1.047 2.067 0 1.32 0.998 2.407 2.28 2.548l0.011 0.001zM19.706 12.314c0 0.004 0 0.008 0 0.012 0 1.279-0.52 2.436-1.36 3.272l-2.013 2.012c-0.28 0.28-0.667 0.453-1.094 0.454h-2.42c-0.427-0.001-0.814-0.174-1.094-0.454l-2.013-2.012c-0.84-0.836-1.36-1.993-1.36-3.271 0-0.005 0-0.009 0-0.014v0.001-2.508h3.816c0.974-0.589 2.151-0.938 3.41-0.938s2.436 0.349 3.44 0.955l-0.030-0.017h0.713zM21.77 11.355c-0.002 0.677-0.439 1.251-1.045 1.458l-0.011 0.003c0.014-0.166 0.024-0.333 0.024-0.502v-2.413c0.605 0.218 1.030 0.785 1.032 1.453v0zM7.319 7.742c0.050-3.667 3.035-6.621 6.71-6.621s6.659 2.954 6.709 6.616l0 0.005v1.084c-0.154-0.033-0.332-0.052-0.514-0.052-0.001 0-0.001 0-0.002 0h-1.235c-0.001 0-0.003 0-0.005 0-1.163 0-2.243-0.353-3.139-0.958l0.020 0.013-0.285-0.191-0.287 0.191c-0.876 0.592-1.956 0.945-3.118 0.945-0.002 0-0.003 0-0.005 0h-4.333c-0.001 0-0.001 0-0.002 0-0.182 0-0.359 0.019-0.531 0.055l0.017-0.003zM7.319 9.902v2.413c0 0.168 0.010 0.335 0.024 0.502-0.619-0.209-1.057-0.784-1.057-1.461 0-0.669 0.426-1.238 1.022-1.45l0.011-0.003z"></path>
    <path d="M19.19 0.001v1.032h11.871v20.645h-4.129v1.032h5.161v-22.712z"></path>
    <path d="M22.802 8.26h3.613v-1.032h-2.58v-1.032h2.58v-1.032h-2.58v-1.033h2.58v-1.031h-3.613z"></path>
    <path d="M30.028 13.42v-1.032h-3.613v5.161h3.613v-1.032h-2.58v-1.032h2.58v-1.030h-2.58v-1.032z"></path>
    <path d="M21.77 16.517h-2.064v1.032h3.092v-3.092h-1.032z"></path>
  </symbol>
  <symbol id="icon-reviews" viewBox="0 0 32 32">
    <path d="M4.351 1.391c-2.4 0.008-4.343 1.951-4.351 4.35v14.155c0.008 2.4 1.951 4.343 4.35 4.351h1.489v4.842c0 0 0 0 0 0 0 0.549 0.445 0.993 0.993 0.993 0.274 0 0.522-0.111 0.701-0.29l-0 0 5.554-5.546h14.375c2.398-0.009 4.338-1.952 4.342-4.35v-14.154c-0.004-2.398-1.945-4.342-4.341-4.351h-0.001zM4.351 3.379h23.112c0.007-0 0.015-0 0.024-0 1.287 0 2.33 1.043 2.33 2.33 0 0.012-0 0.025-0 0.037l0-0.002v14.151c0 0.011 0 0.024 0 0.036 0 1.286-1.043 2.329-2.329 2.329-0.009 0-0.018-0-0.027-0h-14.783c-0.002 0-0.003 0-0.005 0-0.273 0-0.52 0.109-0.7 0.285l-4.146 4.147v-3.442c-0.003-0.546-0.445-0.987-0.99-0.991h-2.487c-0.009 0-0.019 0-0.029 0-1.29 0-2.336-1.046-2.336-2.336 0-0.010 0-0.021 0-0.031l-0 0.002v-14.154c-0-0.008-0-0.018-0-0.028 0-1.291 1.046-2.337 2.337-2.337 0.010 0 0.020 0 0.029 0h-0.002zM15.898 6.371c-0.411 0.005-0.76 0.259-0.906 0.618l-0.002 0.007-1.286 3.2-3.439 0.235c-0.521 0.034-0.931 0.465-0.931 0.991 0 0.306 0.138 0.58 0.356 0.762l0.002 0.001 2.643 2.207-0.845 3.347c-0.020 0.074-0.031 0.159-0.031 0.247 0 0.549 0.445 0.995 0.995 0.995 0.199 0 0.385-0.059 0.54-0.159l-0.004 0.002 2.922-1.835 2.922 1.835c0.149 0.094 0.33 0.15 0.525 0.15 0.549 0 0.995-0.445 0.995-0.995 0-0.085-0.011-0.168-0.031-0.247l0.002 0.007-0.835-3.347 2.643-2.207c0.219-0.184 0.358-0.457 0.358-0.764 0-0.524-0.405-0.953-0.92-0.991l-0.003-0-3.442-0.235-1.283-3.2c-0.15-0.369-0.506-0.625-0.922-0.625-0.006 0-0.012 0-0.018 0h0.001zM15.919 10.031l0.594 1.483c0.143 0.344 0.465 0.587 0.847 0.615l0.003 0 1.607 0.111-1.233 1.027c-0.22 0.184-0.359 0.459-0.359 0.766 0 0.085 0.011 0.168 0.031 0.247l-0.002-0.007 0.388 1.547-1.35-0.851c-0.15-0.095-0.332-0.151-0.528-0.151s-0.378 0.056-0.532 0.154l0.004-0.002-1.358 0.851 0.39-1.547c0.019-0.073 0.030-0.158 0.030-0.244 0-0.305-0.137-0.578-0.353-0.76l-0.001-0.001-1.233-1.027 1.6-0.111c0.389-0.024 0.715-0.268 0.857-0.608l0.002-0.007z"></path>
  </symbol>
  <symbol xmlns="http://www.w3.org/2000/svg" viewBox="0 0 16.904 30.755" id="line-arrow-right">
    <path d="M15.489 15.456L1.447 1.414m13.902 14.178L1.414 29.341" fill="none" stroke-linecap="round" stroke-width="2"></path>
  </symbol>
  <symbol xmlns="http://www.w3.org/2000/svg" viewBox="0 0 16.903 30.755" id="line-arrow-left">
    <path d="M1.414 15.456L15.456 1.414M1.554 15.592l13.935 13.749" fill="none" stroke-linecap="round" stroke-width="2"></path>
  </symbol>
  <symbol id="icon-question-mark" viewBox="0 0 21 32">
    <path d="M7.436 32h5.183v-5.183h-5.183zM7.662 23.886h4.731v-2.479c-0.003-0.058-0.004-0.125-0.004-0.193 0-2.012 1.313-3.718 3.129-4.307l0.032-0.009c2.943-1.254 4.968-4.121 4.968-7.462 0-0.148-0.004-0.296-0.012-0.442l0.001 0.020c-0.684-5.108-5.013-9.006-10.254-9.006s-9.57 3.898-10.248 8.953l-0.006 0.053h4.731c0-2.527 1.805-4.509 5.409-4.509 0.181-0.023 0.391-0.036 0.603-0.036 2.766 0 5.010 2.231 5.032 4.991v0.002c0 2.217-1.579 3.201-3.831 4.283-2.583 1.168-4.348 3.723-4.348 6.69 0 0.343 0.024 0.68 0.069 1.010l-0.004-0.038z"></path>
  </symbol>
  <symbol id="icon-user" viewBox="0 0 30 32">
    <path d="M7.523 11.318c0-4.154 3.367-7.521 7.521-7.521s7.521 3.367 7.521 7.521c0 4.154-3.367 7.521-7.521 7.521v0c-4.154 0-7.521-3.367-7.521-7.521v0zM21.855 20.278c2.728-2.081 4.471-5.334 4.471-8.994 0-6.231-5.051-11.282-11.282-11.282s-11.282 5.051-11.282 11.282c0 3.66 1.743 6.912 4.443 8.974l0.027 0.020c-4.731 1.931-8.042 6.418-8.23 11.699l-0.001 0.023h3.345c0-5.325 5.246-9.627 11.698-9.627s11.696 4.325 11.696 9.627h3.347c-0.189-5.305-3.501-9.791-8.145-11.691l-0.088-0.032z"></path>
  </symbol>
  <symbol id="icon-calendar" viewBox="0 0 33 32">
    <path d="M2.133 14.222h28.445v13.857c0 0.007 0 0.015 0 0.023 0 0.975-0.79 1.765-1.765 1.765-0.009 0-0.017-0-0.026-0h-24.87c-0.007 0-0.016 0-0.024 0-0.975 0-1.765-0.79-1.765-1.765 0-0.008 0-0.016 0-0.024v0.001zM23.834 7.116c0.59 0 1.068 0.478 1.068 1.068s-0.478 1.068-1.068 1.068c-0.59 0-1.068-0.478-1.068-1.068v0c-0-0.005-0-0.011-0-0.016 0-0.581 0.471-1.051 1.051-1.051 0.006 0 0.011 0 0.017 0h-0.001zM8.9 7.116c0 0 0.001 0 0.002 0 0.59 0 1.068 0.478 1.068 1.068s-0.478 1.068-1.068 1.068c-0.59 0-1.068-0.478-1.068-1.068v0c-0-0.005-0-0.012-0-0.018 0-0.58 0.47-1.050 1.050-1.050 0.006 0 0.011 0 0.017 0h-0.001zM11.733 2.138c-0.571 0.023-1.026 0.492-1.026 1.067s0.455 1.044 1.024 1.067l0.002 0h9.244c0.012 0 0.027 0.001 0.041 0.001 0.59 0 1.068-0.478 1.068-1.068s-0.478-1.068-1.068-1.068c-0.015 0-0.029 0-0.044 0.001l0.002-0zM3.923 2.138c-2.163 0.009-3.914 1.76-3.923 3.922v22.023c0.009 2.163 1.76 3.913 3.922 3.921h24.872c2.163-0.008 3.914-1.759 3.923-3.92v-22.028c-0.009-2.163-1.76-3.914-3.922-3.923h-2.123c-0.012-0.001-0.027-0.001-0.041-0.001-0.59 0-1.068 0.478-1.068 1.068s0.478 1.068 1.068 1.068c0.015 0 0.029-0 0.044-0.001l-0.002 0h2.122c0.004-0 0.008-0 0.013-0 0.981 0 1.777 0.795 1.777 1.777 0 0.005-0 0.009-0 0.014v-0.001 6.032h-28.45v-6.032c-0-0.007-0-0.016-0-0.024 0-0.975 0.79-1.765 1.765-1.765 0.009 0 0.017 0 0.026 0h2.121c0.012 0 0.027 0.001 0.042 0.001 0.59 0 1.068-0.478 1.068-1.068s-0.478-1.068-1.068-1.068c-0.015 0-0.029 0-0.044 0.001l0.002-0zM23.834 0.005c0 0 0 0 0 0-0.589 0-1.067 0.477-1.068 1.066v4.101c-1.254 0.453-2.134 1.633-2.134 3.018 0 1.768 1.433 3.201 3.201 3.201s3.201-1.433 3.201-3.201c0-1.385-0.88-2.565-2.112-3.011l-0.022-0.007v-4.101c-0.001-0.588-0.478-1.065-1.066-1.066h-0zM8.9 0.005c-0.589 0-1.066 0.477-1.066 1.066v0 4.101c-1.254 0.452-2.133 1.632-2.133 3.017 0 1.767 1.432 3.199 3.199 3.199s3.199-1.432 3.199-3.199c0-1.385-0.88-2.564-2.111-3.010l-0.022-0.007v-4.101c0-0.589-0.477-1.066-1.066-1.066v0z"></path>
  </symbol>
  <symbol xmlns="http://www.w3.org/2000/svg" viewBox="0 0 11.341 7.212" id="dropdown-arrow">
    <path d="M1.541 1.542L5.67 5.671m4.129-4.129l-1.72 1.72L6.96 4.381l-1.29 1.29" fill="none"  stroke-linecap="round" stroke-width="2.18"></path>
  </symbol>
   <symbol xmlns="http://www.w3.org/2000/svg" viewBox="0 0 12.833 12.84" id="loope">
    <g fill="none">
      <path d="M8.03 8.027A4 4 0 1 0 5.2 9.2a4 4 0 0 0 2.83-1.173z" stroke-width="2.4"></path>
      <path stroke-linecap="round" stroke-width="3.2" d="M8.31 8.307l2.26 2.27"></path>
    </g>
  </symbol>
    <symbol xmlns="http://www.w3.org/2000/svg" viewBox="0 0 17.172 8.799" id="eyes">
    <path d="M17.08 4.559a10 10 0 0 0-16.78 0l-.3.42.3.43a11.341 11.341 0 0 0 3.59 3.29.68.68 0 0 0 .36.1.73.73 0 0 0 .37-1.37 9.87 9.87 0 0 1-2.81-2.45 8.48 8.48 0 0 1 14.07.43.74.74 0 0 0 1.2-.85m-8.39 2.09a1.67 1.67 0 1 1 1.67-1.67 1.67 1.67 0 0 1-1.67 1.67m0-4.8a3.14 3.14 0 1 0 3.14 3.13 3.14 3.14 0 0 0-3.14-3.13"></path>
  </symbol>
    <symbol xmlns="http://www.w3.org/2000/svg" viewBox="0 0 22.758 22.565" id="phone">
    <defs>
      <clipPath id="a">
        <path d="M0 0h22.758v-22.565H0z"></path>
      </clipPath>
    </defs>
    <g clip-path="url(#a)" transform="translate(0 22.565)">
      <path d="M22.758-4.573a2.58 2.58 0 0 1-.771 1.843L20.058-.773a2.57 2.57 0 0 1-1.843.771 2.592 2.592 0 0 1-.557-.053l-.2-.046A22.8 22.8 0 0 1 .112-17.234l-.047-.224a2.569 2.569 0 0 1 .687-2.39l1.927-1.958a2.606 2.606 0 0 1 3.678 0l1.936 1.9a2.607 2.607 0 0 1 0 3.678l-.571.578a1.034 1.034 0 0 0-.193 1.226 16.96 16.96 0 0 0 6.94 6.878 1.065 1.065 0 0 0 1.265-.192l.57-.579a2.615 2.615 0 0 1 3.678 0l1.951 1.932a2.62 2.62 0 0 1 .825 1.812"></path>
    </g>
  </symbol>
  <symbol xmlns="http://www.w3.org/2000/svg" viewBox="0 0 23.023 23.023" id="edit">
    <defs>
      <clipPath id="a">
        <path d="M0 0h23.023v-23.023H0z"></path>
      </clipPath>
    </defs>
    <g transform="translate(0 23.023)" clip-path="url(#a)">
      <path d="M22.394-16.642a2.082 2.082 0 0 0 .629-1.528 2.083 2.083 0 0 0-.629-1.528l-2.7-2.7a2.083 2.083 0 0 0-1.528-.629 2.083 2.083 0 0 0-1.528.629l-2.063 2.071a.56.56 0 0 0-.18.4.427.427 0 0 0 .18.359l4.988 4.988a.428.428 0 0 0 .36.18.559.559 0 0 0 .4-.18zm-9.616-1.887a.557.557 0 0 1 .4-.18.428.428 0 0 1 .36.18l4.992 4.987a.426.426 0 0 1 .179.359.559.559 0 0 1-.179.4L6.756-1.004l-5.482.988A1.031 1.031 0 0 1 .331-.33a1.031 1.031 0 0 1-.315-.944l.989-5.482zM5.588-7.742a.61.61 0 0 0 .449.18.611.611 0 0 0 .45-.18l6.92-6.92a.608.608 0 0 0 .18-.449.611.611 0 0 0-.18-.45.613.613 0 0 0-.449-.181.614.614 0 0 0-.45.179l-6.92 6.921a.607.607 0 0 0-.18.449.608.608 0 0 0 .18.449M3.97-3.969v-2.158H2.353l-.539 2.876 1.437 1.438 2.876-.54V-3.97z"></path>
    </g>
   <symbol xmlns="http://www.w3.org/2000/svg" viewBox="0 0 16.086 8.778" id="arrow-down">
    <path d="M15.382.774l-7.3 7.3M.707.707l7.297 7.297" fill="none" stroke-linecap="round"></path>
  </symbol>
   <symbol xmlns="http://www.w3.org/2000/svg" viewBox="0 0 18.718 17.769" id="icon-phone">
    <path d="M5.383 8.002c-.228-.785-.134-1.067-.053-1.169a.3.3 0 0 1 .275-.1.184.184 0 0 0 .052-.005.118.118 0 0 0 .076-.153v-.017a1.558 1.558 0 0 1 .538-1.74c.712 1.61.145-.717 3.555-.463-.7 1.463 1.454-.339 1.968-.034a3.3 3.3 0 0 1 1.179 2.311.122.122 0 0 0 .129.107h.052a.265.265 0 0 1 .228.1c.076.1.175.384-.053 1.169a3.082 3.082 0 0 1-.379.915 6.555 6.555 0 0 1-2.96 1.232.652.652 0 0 0-.5-.238h-.245a.616.616 0 1 0 0 1.232h.245a.649.649 0 0 0 .52-.26 7.135 7.135 0 0 0 2.283-.706 3.683 3.683 0 0 1-2.067 1.881 2.682 2.682 0 0 1-1.734 0 3.851 3.851 0 0 1-2.4-2.87.115.115 0 0 0-.111-.1c-.07.011-.309-.085-.6-1.091m3.976 6.728a3.459 3.459 0 0 1-2.8-1.339 1.28 1.28 0 0 0 .613-.711 4.741 4.741 0 0 0 .929.457 3.894 3.894 0 0 0 2.51 0 4.408 4.408 0 0 0 .935-.452 1.274 1.274 0 0 0 .607.7 3.44 3.44 0 0 1-2.8 1.344M.64 17.769h17.428a.635.635 0 0 0 .642-.627c0-3.169-4.139-4.44-5.92-4.852a.048.048 0 0 1-.035-.045v-.673a5.1 5.1 0 0 0 .9-1.745 3.435 3.435 0 0 0 .782-1.531 2.424 2.424 0 0 0-.134-2.152l-.023-.028a4.461 4.461 0 0 0 .07-.548 3.96 3.96 0 0 0-.52-3.2 1.916 1.916 0 0 0-1.232-.672A2.786 2.786 0 0 0 9.609.047c-1.156.434-3.894.74-3.655.982-2.219.644-1.781 3.994-1.541 5.112l-.024.029a2.386 2.386 0 0 0-.134 2.152 3.536 3.536 0 0 0 .782 1.531 5.241 5.241 0 0 0 .9 1.734v.678a.043.043 0 0 1-.035.045c-1.781.395-5.92 1.666-5.92 4.841v.005a.638.638 0 0 0 .648.616"></path>
  </symbol>

  <svg width="0" height="0" class="hidden">
  <symbol xmlns="http://www.w3.org/2000/svg" viewBox="0 0 16.7 11.873" id="mail-icon">
    <path d="M1.651.957l6.7 5.209 6.7-5.209a.28.28 0 0 0-.041 0H1.692a.268.268 0 0 0-.041 0zm10.787 3.238l3.307 5.453V1.625zm-7.3.681l-3.785 5.959a.724.724 0 0 0 .337.083h13.318a.727.727 0 0 0 .343-.086l-3.67-6.049L8.65 7.14a.478.478 0 0 1-.594.005zM.954 9.684l3.427-5.395L.957 1.625v.067zM1.69 0h13.318a1.7 1.7 0 0 1 1.691 1.692v8.49a1.7 1.7 0 0 1-1.691 1.691H1.69a1.7 1.7 0 0 1-1.691-1.691v-8.49A1.7 1.7 0 0 1 1.69 0"></path>
  </symbol>
</svg>